<svg xmlns="http://www.w3.org/2000/svg" fill="none" viewBox="0 0 24 24" id="Astro--Streamline-Svg-Logos" height="24" width="24">
  <desc>
    Astro Streamline Icon: https://streamlinehq.com
  </desc>
  <path fill="#000000" d="M4.10665 8.32625c0.063175 0.07845 0.0954 0.184275 0.159825 0.395925l1.4076 4.624025c-0.520425 -0.269975 -1.0862 -0.4647 -1.68285 -0.56975l-0.9165 -3.097125c-0.015 -0.050675 -0.06155 -0.085425 -0.1144 -0.085425 -0.052975 0 -0.0996 0.03495 -0.114475 0.0858L1.9404425 12.7749C1.3410075 12.879475 0.77266 13.07455 0.25 13.3455l1.4145175 -4.624375c0.06463 -0.2113 0.09695 -0.31695 0.1601325 -0.39525 0.0557725 -0.0691 0.128325 -0.122775 0.2107325 -0.1559 0.093345 -0.037525 0.203825 -0.037525 0.424795 -0.037525H3.4705c0.22125 0 0.331875 0 0.4253 0.0376 0.082475 0.033175 0.155075 0.086975 0.21085 0.1562Z" stroke-width="0.25"></path>
  <path fill="#ff5d01" d="M4.27515 13.56625c-0.23205 0.198425 -0.6952 0.33375 -1.2287 0.33375 -0.6548075 0 -1.2036275 -0.20385 -1.3492625 -0.478 -0.0520625 0.157125 -0.0637375 0.33695 -0.0637375 0.451825 0 0 -0.034305 0.564075 0.3580225 0.9564 0 -0.2037 0.1651525 -0.36885 0.368865 -0.36885 0.3491625 0 0.3487875 0.304625 0.3484625 0.551775 0 0.0074 -0.000025 0.014775 -0.000025 0.02205 0 0.37515 0.229275 0.696725 0.555325 0.832275 -0.0487 -0.100175 -0.076 -0.21265 -0.076 -0.331525 0 -0.357775 0.21005 -0.491 0.45415 -0.645825 0.19425 -0.123175 0.41005 -0.26005 0.558775 -0.5346 0.0776 -0.14325 0.121675 -0.307325 0.121675 -0.4817 0 -0.107225 -0.016675 -0.210575 -0.04755 -0.307575Z" stroke-width="0.25"></path>
  <path fill="#000000" d="M8.90575 13.273775c0.588775 0 1.03035 -0.209475 1.2115 -0.5661 0 0.169825 0.011275 0.345325 0.0396 0.4812h0.96805l-0.00275 -0.012225c-0.04295 -0.195025 -0.064675 -0.459375 -0.065125 -0.803425l0 -0.882725c0 -0.826525 -0.486925 -1.21715 -1.56815 -1.21715 -0.94545 0 -1.5795 0.390625 -1.6531 1.030325h1.0077c0.03395 -0.2774 0.26605 -0.43025 0.6454 -0.43025 0.373575 0 0.58305 0.15285 0.58305 0.4699v0.0849l-1.024625 0.090575c-0.493225 0.05045 -0.7756 0.134175 -0.97345 0.267675l-0.005975 0.004075c-0.20945 0.141525 -0.317025 0.35665 -0.317025 0.622725 0 0.53215 0.441575 0.8605 1.1549 0.8605Zm0.37365 -0.588775c-0.3284 0 -0.5265 -0.130175 -0.5265 -0.33965 0 -0.215125 0.164125 -0.32835 0.577475 -0.3793l0.758525 -0.07925v0.169825c0 0.3793 -0.3283 0.628375 -0.8095 0.628375Zm3.8873 0.588775c0.9851 0 1.488925 -0.367975 1.488925 -0.9624 0 -0.492525 -0.283075 -0.764275 -0.968025 -0.85485l-0.854925 -0.096225c-0.243375 -0.033975 -0.3453 -0.09625 -0.3453 -0.232125 0 -0.16415 0.16415 -0.237775 0.5378 -0.237775 0.515175 0 0.871825 0.1189 1.1606 0.351025l0.4585 -0.458575c-0.31705 -0.32835 -0.8661 -0.5095 -1.54545 -0.5095 -0.95675 0 -1.488925 0.33965 -1.488925 0.91145 0 0.498175 0.328325 0.775575 1.00765 0.86615l0.769975 0.090575c0.3057 0.03965 0.396275 0.09625 0.396275 0.24345 0 0.16985 -0.169875 0.260425 -0.56615 0.260425 -0.58875 0 -0.985 -0.158525 -1.2511 -0.4529l-0.5208 0.43025c0.3453 0.43025 0.93405 0.651025 1.72095 0.651025Zm2.2882 -2.2758V12.1925c0 0.701975 0.396275 1.05865 1.245475 1.05865 0.26045 0 0.464225 -0.028325 0.6567 -0.084925V12.43025l-0.016275 0.003575c-0.09885 0.0214 -0.218825 0.041725 -0.37435 0.041725 -0.35665 0 -0.53215 -0.1585 -0.53215 -0.492525v-0.98505h0.928425V10.35825h-0.928425v-1.035975l-0.9794 0.3623v0.673675h-0.634075v0.639725h0.634075Zm3.3139 -0.639725h-0.89445v2.830625h0.979375v-1.05865c0 -0.305725 0.06795 -0.583125 0.254825 -0.758625 0.14715 -0.135875 0.35665 -0.20945 0.650975 -0.20945 0.107575 0 0.1925 0.011325 0.2887 0.02265v-0.888825c-0.062225 -0.0113 -0.10755 -0.0113 -0.186775 -0.0113 -0.5605 0 -0.939775 0.322675 -1.09265 0.849175V10.35825Zm3.2148 2.915525c1.036075 0 1.766375 -0.549125 1.766375 -1.505875 0 -0.951075 -0.7303 -1.49455 -1.766375 -1.49455 -1.0416 0 -1.7719 0.543475 -1.7719 1.49455 0 0.95675 0.7303 1.505875 1.7719 1.505875Zm0 -0.651025c-0.475475 0 -0.775525 -0.3057 -0.775525 -0.85485s0.30005 -0.843525 0.775525 -0.843525c0.46995 0 0.77 0.294375 0.77 0.843525s-0.30005 0.85485 -0.77 0.85485Z" stroke-width="0.25"></path>
</svg>